<svg width="512" height="512" viewBox="0 0 512 512" fill="none" xmlns="http://www.w3.org/2000/svg">
  <rect width="512" height="512" rx="112" fill="#F4E0DD"/>
  <path d="M250.82 83L338.327 320.577H282.677L232.149 176.153L171.943 320.577H127.149L216.282 83H250.82Z" fill="#050505"/>
  <path d="M98 403.032C122.42 394.26 136.639 370.763 149.241 336.31H193.792C183.469 378.462 162.255 408.854 120.388 420H98V403.032Z" fill="#050505"/>
  <path d="M313.225 336.31H357.775C370.378 370.763 384.596 394.26 409.017 403.032V420H386.628C344.761 408.854 323.548 378.462 313.225 336.31Z" fill="#050505"/>
  <path d="M88 364.071L170.086 306.549L236.669 349.368L327.967 262.182" stroke="#050505" stroke-width="13" stroke-linecap="round" stroke-linejoin="round"/>
  <circle cx="88" cy="364.071" r="15.5" fill="#050505"/>
  <circle cx="170.086" cy="306.549" r="15.5" fill="#050505"/>
  <circle cx="236.669" cy="349.368" r="15.5" fill="#050505"/>
  <circle cx="327.967" cy="262.182" r="15.5" fill="#050505"/>
  <path d="M390.261 152L398.759 175.241L422 183.739L398.759 192.237L390.261 215.478L381.763 192.237L358.521 183.739L381.763 175.241L390.261 152Z" fill="#D9B65F"/>
</svg>
