<svg xmlns="http://www.w3.org/2000/svg" width="120" height="120" fill="none"><g clip-path="url(#a)"><mask id="b" width="180" height="180" x="-30" y="-30" maskUnits="userSpaceOnUse" style="mask-type:luminance"><path fill="#fff" d="M150-30H-30v180h180V-30Z"/></mask><g mask="url(#b)"><mask id="c" width="123" height="123" x="-2" y="-1" maskUnits="userSpaceOnUse" style="mask-type:luminance"><path fill="#fff" d="M-1.2-.375h121.5v121.5H-1.2V-.375Z"/></mask><g mask="url(#c)"><mask id="d" width="104" height="104" x="8" y="8" maskUnits="userSpaceOnUse" style="mask-type:alpha"><path fill="#1C1B25" d="M107.97 53.415c5.202 2.846 5.202 10.325 0 13.17L83.145 80.16a7.52 7.52 0 0 0-2.985 2.985L66.585 107.97c-2.846 5.202-10.325 5.202-13.17 0L39.84 83.145a7.52 7.52 0 0 0-2.985-2.985L12.03 66.585c-5.202-2.845-5.202-10.324 0-13.17L36.855 39.84a7.52 7.52 0 0 0 2.985-2.985L53.415 12.03c2.845-5.202 10.324-5.202 13.17 0L80.16 36.855a7.52 7.52 0 0 0 2.985 2.985l24.825 13.575Z"/></mask><g mask="url(#d)"><mask id="e" width="123" height="123" x="-2" y="-1" maskUnits="userSpaceOnUse" style="mask-type:luminance"><path fill="#fff" d="M-1.2-.375h121.5v121.5H-1.2V-.375Z"/></mask><g mask="url(#e)"><path fill="#1C1B25" d="M107.97 53.415c5.202 2.846 5.202 10.325 0 13.17L83.145 80.16a7.52 7.52 0 0 0-2.985 2.985L66.585 107.97c-2.846 5.202-10.325 5.202-13.17 0L39.84 83.145a7.52 7.52 0 0 0-2.985-2.985L12.03 66.585c-5.202-2.845-5.202-10.324 0-13.17L36.855 39.84a7.52 7.52 0 0 0 2.985-2.985L53.415 12.03c2.845-5.202 10.324-5.202 13.17 0L80.16 36.855a7.52 7.52 0 0 0 2.985 2.985l24.825 13.575Z"/><path fill="#1C1B25" d="M130.498-8.786v140.572H-6.658V-8.786h137.156Z" opacity=".01"/><mask id="f" width="138" height="141" x="-7" y="-9" maskUnits="userSpaceOnUse" style="mask-type:alpha"><path fill="#000" d="M130.498-8.786v140.572H-6.658V-8.786h137.156Z" opacity=".01"/></mask><g mask="url(#f)"><mask id="g" width="123" height="124" x="-2" y="-1" maskUnits="userSpaceOnUse" style="mask-type:luminance"><path fill="#fff" d="M-1.2-.375h121.5v123H-1.2v-123Z"/></mask><g mask="url(#g)"><path fill="url(#h)" d="M134.1-252.487v768.032h-281.016v-768.032H134.1Z" opacity=".01"/></g></g><mask id="i" width="138" height="141" x="-7" y="-9" maskUnits="userSpaceOnUse" style="mask-type:alpha"><path fill="#000" d="M130.498-8.786v140.572H-6.658V-8.786h137.156Z" opacity=".01"/></mask><g mask="url(#i)"><mask id="j" width="123" height="124" x="-2" y="-1" maskUnits="userSpaceOnUse" style="mask-type:luminance"><path fill="#fff" d="M-1.2-.375h121.5v123H-1.2v-123Z"/></mask><g mask="url(#j)"><path fill="url(#k)" d="m-8.776 627.405-.778-761.232 279.059-2.13.778 761.232-279.06 2.13Z" opacity=".01"/></g></g><mask id="l" width="138" height="141" x="-7" y="-9" maskUnits="userSpaceOnUse" style="mask-type:alpha"><path fill="#000" d="M130.498-8.786v140.572H-6.658V-8.786h137.156Z" opacity=".01"/></mask><g mask="url(#l)"><mask id="m" width="123" height="124" x="-2" y="-1" maskUnits="userSpaceOnUse" style="mask-type:luminance"><path fill="#fff" d="M-1.2-.375h121.5v123H-1.2v-123Z"/></mask><g mask="url(#m)"><path fill="url(#n)" d="M269.776-389.866v762.674H-9.28v-762.674h279.056Z" opacity=".01"/></g></g><mask id="o" width="138" height="141" x="-7" y="-9" maskUnits="userSpaceOnUse" style="mask-type:alpha"><path fill="#000" d="M130.498-8.786v140.572H-6.658V-8.786h137.156Z" opacity=".01"/></mask><g mask="url(#o)"><mask id="p" width="123" height="124" x="-2" y="-1" maskUnits="userSpaceOnUse" style="mask-type:luminance"><path fill="#fff" d="M-1.2-.375h121.5v123H-1.2v-123Z"/></mask><g mask="url(#p)"><path fill="url(#q)" d="M135.405-396.367v775.163h-283.626v-775.163h283.626Z" opacity=".01"/></g></g></g></g></g><mask id="s" width="166" height="166" x="-23" y="-23" maskUnits="userSpaceOnUse" style="mask-type:luminance"><path fill="#fff" d="M142.5-22.5v165h-165v-165h165Z"/></mask><g filter="url(#r)" mask="url(#s)" style="mix-blend-mode:overlay"><mask id="t" width="123" height="123" x="-2" y="-1" maskUnits="userSpaceOnUse" style="mask-type:luminance"><path fill="#fff" d="M-1.2-.375h121.5v121.5H-1.2V-.375Z"/></mask><g mask="url(#t)"><mask id="u" width="104" height="104" x="8" y="8" maskUnits="userSpaceOnUse" style="mask-type:alpha"><path fill="#1C1B25" d="M107.97 53.415c5.202 2.846 5.202 10.325 0 13.17L83.145 80.16a7.52 7.52 0 0 0-2.985 2.985L66.585 107.97c-2.846 5.202-10.325 5.202-13.17 0L39.84 83.145a7.52 7.52 0 0 0-2.985-2.985L12.03 66.585c-5.202-2.845-5.202-10.324 0-13.17L36.855 39.84a7.52 7.52 0 0 0 2.985-2.985L53.415 12.03c2.845-5.202 10.324-5.202 13.17 0L80.16 36.855a7.52 7.52 0 0 0 2.985 2.985l24.825 13.575Z"/></mask><g mask="url(#u)"><mask id="v" width="123" height="123" x="-2" y="-1" maskUnits="userSpaceOnUse" style="mask-type:luminance"><path fill="#fff" d="M-1.2-.375h121.5v121.5H-1.2V-.375Z"/></mask><g mask="url(#v)"><mask id="w" width="138" height="141" x="-7" y="-9" maskUnits="userSpaceOnUse" style="mask-type:alpha"><path fill="#000" d="M130.498-8.786v140.572H-6.658V-8.786h137.156Z" opacity=".01"/></mask><g mask="url(#w)"><mask id="x" width="139" height="144" x="-8" y="-10" maskUnits="userSpaceOnUse" style="mask-type:luminance"><path fill="#fff" d="M-7.2-9.375h138v142.5h-138v-142.5Z"/></mask><g mask="url(#x)"><path fill="url(#y)" d="M134.1-252.487v768.032h-281.016v-768.032H134.1Z" opacity=".01"/></g></g><mask id="z" width="138" height="141" x="-7" y="-9" maskUnits="userSpaceOnUse" style="mask-type:alpha"><path fill="#000" d="M130.498-8.786v140.572H-6.658V-8.786h137.156Z" opacity=".01"/></mask><g mask="url(#z)"><mask id="A" width="139" height="144" x="-8" y="-10" maskUnits="userSpaceOnUse" style="mask-type:luminance"><path fill="#fff" d="M-7.2-9.375h138v142.5h-138v-142.5Z"/></mask><g mask="url(#A)"><path fill="url(#B)" d="m-8.776 627.405-.778-761.232 279.059-2.13.778 761.232-279.06 2.13Z" opacity=".01"/></g></g><mask id="C" width="138" height="141" x="-7" y="-9" maskUnits="userSpaceOnUse" style="mask-type:alpha"><path fill="#000" d="M130.498-8.786v140.572H-6.658V-8.786h137.156Z" opacity=".01"/></mask><g mask="url(#C)"><mask id="D" width="139" height="144" x="-8" y="-10" maskUnits="userSpaceOnUse" style="mask-type:luminance"><path fill="#fff" d="M-7.2-9.375h138v142.5h-138v-142.5Z"/></mask><g mask="url(#D)"><path fill="url(#E)" d="M269.776-389.866v762.674H-9.28v-762.674h279.056Z" opacity=".01"/></g></g><mask id="F" width="138" height="141" x="-7" y="-9" maskUnits="userSpaceOnUse" style="mask-type:alpha"><path fill="#000" d="M130.498-8.786v140.572H-6.658V-8.786h137.156Z" opacity=".01"/></mask><g mask="url(#F)"><mask id="G" width="139" height="144" x="-8" y="-10" maskUnits="userSpaceOnUse" style="mask-type:luminance"><path fill="#fff" d="M-7.2-9.375h138v142.5h-138v-142.5Z"/></mask><g mask="url(#G)"><path fill="url(#H)" d="M135.405-396.367v775.163h-283.626v-775.163h283.626Z" opacity=".01"/></g></g><path fill="#F6F6F9" d="M76.79 57.695c1.82.996 1.82 3.614 0 4.61l-8.69 4.751a2.63 2.63 0 0 0-1.044 1.045l-4.751 8.689a2.61 2.61 0 0 1-2.5 1.36 2.596 2.596 0 0 1-2.11-1.36l-4.751-8.69a2.632 2.632 0 0 0-1.045-1.044l-8.688-4.751c-1.821-.996-1.821-3.614 0-4.61l8.688-4.751c.44-.24.804-.604 1.045-1.045l4.751-8.688a2.597 2.597 0 0 1 2.116-1.36 2.607 2.607 0 0 1 2.494 1.36l4.751 8.688c.241.44.604.804 1.045 1.045l8.689 4.751Z"/></g></g></g></g><path fill="#F6F6F9" d="M76.79 57.695c1.82.996 1.82 3.614 0 4.61l-8.69 4.751a2.63 2.63 0 0 0-1.044 1.045l-4.751 8.689a2.61 2.61 0 0 1-2.5 1.36 2.596 2.596 0 0 1-2.11-1.36l-4.75-8.69a2.633 2.633 0 0 0-1.046-1.044l-8.688-4.751c-1.821-.996-1.821-3.614 0-4.61l8.688-4.751c.44-.24.804-.604 1.045-1.045l4.751-8.688a2.597 2.597 0 0 1 2.116-1.36 2.608 2.608 0 0 1 2.494 1.36l4.751 8.688c.241.44.604.804 1.045 1.045l8.689 4.751Z"/></g></g><defs><radialGradient id="h" cx="0" cy="0" r="1" gradientTransform="matrix(89.625 0 0 244.95 130.248 -8.529)" gradientUnits="userSpaceOnUse"><stop stop-color="#F22467"/><stop offset="1" stop-color="#F22467" stop-opacity="0"/></radialGradient><radialGradient id="k" cx="0" cy="0" r="1" gradientTransform="matrix(-44.06722 .33611 -.58108 -76.18528 130.248 131.529)" gradientUnits="userSpaceOnUse"><stop stop-color="#FF4DC7"/><stop offset="1" stop-color="#FF4DC7" stop-opacity="0"/></radialGradient><radialGradient id="n" cx="0" cy="0" r="1" gradientTransform="matrix(103.078 0 0 281.718 -6.408 131.529)" gradientUnits="userSpaceOnUse"><stop stop-color="#0095ED"/><stop offset="1" stop-color="#0095ED" stop-opacity="0"/></radialGradient><radialGradient id="q" cx="0" cy="0" r="1" gradientTransform="matrix(59.8084 0 0 163.459 -6.408 -8.529)" gradientUnits="userSpaceOnUse"><stop stop-color="#F69D0F"/><stop offset="1" stop-color="#F69D0F" stop-opacity="0"/></radialGradient><radialGradient id="y" cx="0" cy="0" r="1" gradientTransform="matrix(89.625 0 0 244.95 130.248 -8.529)" gradientUnits="userSpaceOnUse"><stop stop-color="#F22467"/><stop offset="1" stop-color="#F22467" stop-opacity="0"/></radialGradient><radialGradient id="B" cx="0" cy="0" r="1" gradientTransform="matrix(-44.06722 .33611 -.58108 -76.18528 130.248 131.529)" gradientUnits="userSpaceOnUse"><stop stop-color="#FF4DC7"/><stop offset="1" stop-color="#FF4DC7" stop-opacity="0"/></radialGradient><radialGradient id="E" cx="0" cy="0" r="1" gradientTransform="matrix(103.078 0 0 281.718 -6.408 131.529)" gradientUnits="userSpaceOnUse"><stop stop-color="#0095ED"/><stop offset="1" stop-color="#0095ED" stop-opacity="0"/></radialGradient><radialGradient id="H" cx="0" cy="0" r="1" gradientTransform="matrix(59.8084 0 0 163.459 -6.408 -8.529)" gradientUnits="userSpaceOnUse"><stop stop-color="#F69D0F"/><stop offset="1" stop-color="#F69D0F" stop-opacity="0"/></radialGradient><clipPath id="a"><path fill="#fff" d="M0 0h120v120H0z"/></clipPath><filter id="r" width="146.943" height="146.943" x="-13.472" y="-13.472" color-interpolation-filters="sRGB" filterUnits="userSpaceOnUse"><feFlood flood-opacity="0" result="BackgroundImageFix"/><feBlend in="SourceGraphic" in2="BackgroundImageFix" result="shape"/><feGaussianBlur result="effect1_foregroundBlur_1738_7" stdDeviation="10.8"/></filter></defs></svg>